<?xml version="1.0" encoding="UTF-8"?>
<svg xmlns="http://www.w3.org/2000/svg" xmlns:xlink="http://www.w3.org/1999/xlink" width="45px" height="45px" viewBox="0 0 45 45" version="1.1">
<g id="surface1">
<path style=" stroke:none;fill-rule:nonzero;fill:rgb(100%,100%,100%);fill-opacity:1;" d="M 38.242188 35.441406 L 32.445312 29.648438 L 37 25.09375 L 40.097656 28.191406 Z M 37 19.628906 L 32.445312 15.074219 L 38.242188 9.28125 L 40.097656 16.53125 Z M 28.257812 4.691406 L 35.507812 6.546875 L 29.714844 12.339844 L 25.160156 7.789062 Z M 19.695312 7.789062 L 15.140625 12.339844 L 9.347656 6.546875 L 16.597656 4.691406 Z M 6.613281 9.28125 L 12.410156 15.074219 L 7.855469 19.628906 L 4.757812 16.53125 Z M 7.855469 25.09375 L 12.410156 29.644531 L 6.613281 35.441406 L 4.757812 28.191406 Z M 16.597656 40.03125 L 9.347656 38.171875 L 15.140625 32.378906 L 19.695312 36.933594 Z M 26.980469 29.648438 L 22.429688 34.199219 L 17.875 29.648438 L 22.429688 25.09375 Z M 29.714844 17.804688 L 34.269531 22.359375 L 29.714844 26.914062 L 25.160156 22.359375 Z M 19.695312 22.359375 L 15.140625 26.914062 L 10.589844 22.359375 L 15.140625 17.804688 Z M 17.875 15.074219 L 22.429688 10.519531 L 26.980469 15.074219 L 22.429688 19.628906 Z M 25.160156 36.933594 L 29.714844 32.378906 L 35.507812 38.171875 L 28.257812 40.03125 Z M 40.984375 40.917969 L 44.515625 27.140625 L 39.734375 22.359375 L 44.515625 17.578125 L 40.984375 3.804688 L 27.210938 0.273438 L 22.429688 5.054688 L 17.644531 0.273438 L 3.871094 3.804688 L 0.339844 17.578125 L 5.125 22.359375 L 0.339844 27.140625 L 3.871094 40.917969 L 17.644531 44.445312 L 22.429688 39.664062 L 27.210938 44.445312 Z M 53.988281 55.261719 C 53.425781 54.464844 52.753906 53.828125 51.976562 53.347656 C 50.703125 52.554688 48.964844 52.15625 46.765625 52.15625 L 41.207031 52.15625 L 41.207031 68.710938 L 47.710938 68.710938 C 50.058594 68.710938 51.945312 67.949219 53.367188 66.425781 C 54.789062 64.90625 55.5 62.886719 55.5 60.371094 C 55.5 58.371094 54.996094 56.667969 53.988281 55.261719 M 47.238281 64.964844 L 45.425781 64.964844 L 45.425781 55.90625 L 47.261719 55.90625 C 48.554688 55.90625 49.546875 56.304688 50.238281 57.101562 C 50.933594 57.898438 51.28125 59.03125 51.28125 60.496094 C 51.28125 63.472656 49.933594 64.964844 47.238281 64.964844 M 33.390625 68.710938 L 37.609375 68.710938 L 37.609375 52.160156 L 33.390625 52.160156 Z M 21.355469 52.15625 L 14.730469 68.710938 L 19.273438 68.710938 L 20.140625 66.304688 L 25.898438 66.304688 L 26.691406 68.710938 L 31.28125 68.710938 L 24.707031 52.15625 Z M 21.308594 62.953125 L 23.042969 57.296875 L 24.753906 62.953125 Z M 8.203125 52.15625 L 3.984375 52.15625 L 3.984375 68.710938 L 13.09375 68.710938 L 13.09375 64.960938 L 8.203125 64.960938 Z M -0.652344 53.398438 C -1.648438 52.570312 -3.34375 52.160156 -5.742188 52.160156 L -11.152344 52.160156 L -11.152344 68.710938 L -7.105469 68.710938 L -7.105469 63.523438 L -5.292969 63.523438 C -3.09375 63.523438 -1.480469 63.042969 -0.457031 62.082031 C 0.703125 61.007812 1.28125 59.578125 1.28125 57.792969 C 1.28125 55.9375 0.636719 54.472656 -0.652344 53.398438 M -5.394531 59.777344 L -7.105469 59.777344 L -7.105469 55.90625 L -5.566406 55.90625 C -3.699219 55.90625 -2.765625 56.554688 -2.765625 57.851562 C -2.765625 59.136719 -3.640625 59.777344 -5.394531 59.777344 "/>
</g>
</svg>
